<?xml version="1.0" standalone="no"?>
<!DOCTYPE svg PUBLIC "-//W3C//DTD SVG 20010904//EN"
 "http://www.w3.org/TR/2001/REC-SVG-20010904/DTD/svg10.dtd">
<svg version="1.0" xmlns="http://www.w3.org/2000/svg"
 width="107.000000pt" height="107.000000pt" viewBox="0 0 107.000000 107.000000"
 preserveAspectRatio="xMidYMid meet">
<metadata>
Created by potrace 1.11, written by Peter Selinger 2001-2013
</metadata>
<g transform="translate(0.000000,107.000000) scale(0.100000,-0.100000)"
fill="#000000" stroke="none">
<path d="M35 879 c-36 -6 -39 -9 -9 -13 12 -1 20 -10 264 -266 85 -90 208
-218 274 -286 l119 -124 191 1 c108 0 182 4 171 8 -18 8 -89 76 -212 207 -26
28 -121 127 -209 220 -89 93 -180 189 -201 212 l-40 44 -154 1 c-85 1 -172 -1
-194 -4z"/>
</g>
</svg>
